<?xml version="1.0" encoding="UTF-8" standalone="no"?>
<!-- Created with Inkscape (http://www.inkscape.org/) -->

<svg
   width="190.24834mm"
   height="190.2484mm"
   viewBox="0 0 190.24834 190.2484"
   version="1.1"
   id="svg1"
   xmlns="http://www.w3.org/2000/svg"
   xmlns:svg="http://www.w3.org/2000/svg">
  <defs
     id="defs1">
    <linearGradient
       id="swatch4">
      <stop
         style="stop-color:#000000;stop-opacity:1;"
         offset="0"
         id="stop4" />
    </linearGradient>
  </defs>
  <g
     id="layer1"
     transform="translate(-462.49166,-818.88544)">
    <path
       id="path1-3-8"
       style="fill:none;stroke:#ffffff;stroke-width:1.2;stroke-linecap:round"
       d="m 652.14003,914.00958 a 94.524185,94.524185 0 0 1 -94.52419,94.52422 94.524185,94.524185 0 0 1 -94.52418,-94.52422 94.524185,94.524185 0 0 1 94.52418,-94.52418 94.524185,94.524185 0 0 1 94.52419,94.52418 z" />
    <path
       id="path1-8-8-6"
       style="baseline-shift:-100%;fill:none;stroke:#ffffff;stroke-width:1.2;stroke-linecap:round"
       d="m 629.59821,914.00958 a 71.982361,71.982368 0 0 1 -71.98237,71.98237 71.982361,71.982368 0 0 1 -71.98236,-71.98237 71.982361,71.982368 0 0 1 71.98236,-71.98237 71.982361,71.982368 0 0 1 71.98237,71.98237 z" />
    <path
       style="font-size:10px;line-height:0px;font-family:'7 days';-inkscape-font-specification:'7 days, Normal';fill:#ffffff;stroke:#ffffff;stroke-width:0.1;stroke-linejoin:bevel"
       d="m 571.32144,996.23063 q -0.12717,-0.51452 -0.10185,-0.91221 0.008,-0.34195 0.17007,-1.02062 0.14716,-0.61323 0.70674,-1.26658 0.43065,-0.50818 1.09602,-0.81685 0.25983,-0.11572 0.19187,-0.0989 l 7.31003,-1.80678 q 0.10678,-0.0264 0.33442,0.10276 0.21793,0.13155 0.24913,0.25775 l 1.44446,5.84414 q 0.0408,0.16504 -0.11498,0.36835 -0.15577,0.20331 -0.30138,0.23931 l -7.17412,1.77318 q -0.58247,0.14396 -1.5299,-0.18842 -0.94743,-0.33238 -1.3221,-0.80632 -0.0629,-0.0462 -0.2008,-0.18729 -0.52966,-0.55925 -0.75761,-1.4815 z m 0.97079,-0.23994 q 0.17996,0.72809 0.70002,1.24851 0.62652,0.61771 1.49957,0.64915 0.45833,0.0206 0.49477,0.001 l 6.64018,-1.64121 -1.19732,-4.84423 -6.64018,1.64121 q -0.1165,0.0288 -0.43719,0.23167 -0.74587,0.48308 -1.00746,1.2585 -0.24195,0.68816 -0.0524,1.45508 z m -15.0365,-2.17697 10.10471,-0.71538 q 0.1197,-0.008 0.32264,0.16763 0.19226,0.16684 0.20074,0.28654 l 0.4329,6.1147 q -0.12491,0.35969 -0.47404,0.38439 -0.399,0.028 -0.52841,-0.3836 l -0.39194,-5.53614 -9.59598,0.67937 q -0.37111,-0.14416 -0.39371,-0.46336 -0.0212,-0.29925 0.32309,-0.53415 z m -28.08159,-1.53638 q 0.14269,-0.51043 0.36056,-0.8441 0.17552,-0.29359 0.65061,-0.80455 0.43006,-0.46125 1.23882,-0.75434 0.62506,-0.23023 1.35617,-0.17122 0.28312,0.0272 0.2157,0.008 l 7.252,2.02718 q 0.10594,0.0296 0.24046,0.25412 0.1249,0.22181 0.0899,0.34701 l -1.62067,5.79775 q -0.0458,0.16372 -0.28145,0.26397 -0.23569,0.10025 -0.38016,0.0599 l -7.11716,-1.98949 q -0.57785,-0.16153 -1.23877,-0.91737 -0.66092,-0.75583 -0.75362,-1.35283 -0.032,-0.0712 -0.0825,-0.26189 -0.1856,-0.74756 0.0702,-1.66249 z m 0.96308,0.26921 q -0.20191,0.72231 -0.006,1.43136 0.2411,0.84614 0.98548,1.30342 0.38876,0.24366 0.42997,0.2448 l 6.58747,1.84142 1.34338,-4.80577 -6.58747,-1.84142 q -0.11557,-0.0323 -0.49458,-0.0137 -0.88706,0.0532 -1.49657,0.59923 -0.54946,0.47979 -0.76214,1.24062 z m -12.02836,-9.29452 9.24624,4.40054 q 0.24727,0.29488 0.10116,0.60189 -0.14181,0.29797 -0.52661,0.29204 l -4.16261,-1.98111 -2.153,4.5238 4.16262,1.9811 q 0.2606,0.29015 0.11019,0.60618 -0.1719,0.36118 -0.60314,0.26669 l -9.11982,-4.34038 q -0.34057,-0.26175 -0.16437,-0.63196 0.15041,-0.31604 0.5309,-0.30107 l 4.17164,1.9854 2.153,-4.52379 -4.17164,-1.9854 q -0.24298,-0.30391 -0.10976,-0.58383 0.13322,-0.27991 0.5352,-0.3101 z m -11.2004,-7.77967 8.26905,5.85148 q 0.0979,0.0693 0.14907,0.326 0.043,0.25091 -0.0321,0.35703 l -3.47739,4.91408 q -0.0982,0.13877 -0.35388,0.15385 -0.25568,0.0151 -0.38628,-0.0774 l -8.15477,-5.7706 q -0.29902,-0.32185 -0.0622,-0.65653 0.20217,-0.28571 0.58268,-0.2002 l 7.84457,5.5511 1.16106,-1.64074 -7.84458,-5.55111 q -0.19566,-0.34672 -0.0166,-0.59977 0.17907,-0.25305 0.58847,-0.20836 l 7.84457,5.55111 1.16105,-1.64075 -7.84457,-5.55111 q -0.19567,-0.34672 -0.0166,-0.59977 0.17907,-0.25305 0.58846,-0.20836 z m -13.98082,-5.35012 3.26714,3.28065 3.98921,-3.97279 q 0.36091,-0.13361 0.59377,0.10022 0.23992,0.24091 0.10483,0.60126 l -3.98213,3.96573 3.26009,3.27357 q 0.14066,0.36798 -0.10025,0.6079 -0.28342,0.28226 -0.65771,0.0481 l -7.12704,-7.15648 q -0.23968,-0.35405 0.0579,-0.65043 0.248,-0.24697 0.59418,-0.0978 z m -4.31994,-15.35697 q 0.38404,-0.18388 0.63672,0.17633 0.26416,0.37659 -0.0452,0.6669 l -4.24889,2.98045 q 1.4236,0.60155 4.68317,2.11393 0.0926,0.045 0.15321,0.8453 0.10383,1.45403 0.3148,4.38422 l 4.24888,-2.98045 q 0.37586,-0.17814 0.62853,0.18207 0.201,0.28654 -0.005,0.60214 l -5.13305,3.60066 q -0.33088,0.0855 -0.51465,-0.17645 -0.13208,-0.18829 -0.13647,-0.49059 -0.019,-1.03712 -0.15416,-2.64023 -0.21537,-2.41407 -0.22954,-2.66064 -1.62362,-0.72998 -4.87085,-2.18994 -0.12866,-0.0441 -0.31964,-0.14223 -0.0566,-0.0458 -0.0968,-0.10313 -0.10337,-0.14736 -0.0749,-0.35055 0.0145,-0.20564 0.13734,-0.29178 z m -9.2692,-4.44581 q -0.0932,-0.0335 -0.17462,-0.18305 -0.0767,-0.16285 -0.0559,-0.28314 0.0739,-0.28903 0.28085,-0.71807 0.18301,-0.3625 0.36123,-0.7117 0.67879,-1.46916 1.3528,-2.92501 1.06075,-2.30116 1.48105,-3.05173 0.0846,-0.17247 0.35657,-0.13474 0.30765,0.043 0.39711,0.23303 0.11076,0.23522 -0.093,0.71802 -0.16917,0.34494 -0.33834,0.68987 l 3.39106,7.20155 q 0.37792,0.0984 0.75584,0.19675 0.48438,0.13667 0.59088,0.36285 0.0895,0.18999 -0.0558,0.46839 -0.0468,0.0884 -0.14634,0.13523 -0.20808,0.098 -0.66159,-0.0201 -0.30659,-0.0878 -0.59988,-0.17071 -1.4494,-0.37861 -3.27671,-0.8556 -0.83195,-0.19407 -1.66816,-0.39719 -1.04965,-0.25736 -1.89706,-0.55468 z m 3.02512,-5.17149 -2.05979,4.45166 4.72663,1.21186 z m -7.73281,-14.79957 q 0.78196,-0.17362 1.34025,0.0462 0.80586,0.328 1.141,1.16924 l 0.49335,1.79337 q 0.42653,-1.46563 1.04751,-3.84558 0.06,-0.23431 0.31671,-0.35679 0.12703,-0.0661 0.3746,0.0422 0.24491,0.0986 0.27072,0.26778 0.0328,0.15692 -0.0142,0.32542 -0.76511,2.64778 -1.51598,5.38498 l 1.17237,4.26168 2.52615,-0.69493 q 0.37991,0.0614 0.47009,0.38926 0.0875,0.31818 -0.2075,0.56528 l -5.91043,1.62593 q -0.17356,0.0478 -0.36858,-0.0957 -0.20732,-0.1504 -0.24975,-0.30467 l -2.28108,-8.29196 q -0.13893,-0.95745 0.34215,-1.54614 0.51435,-0.61858 1.05261,-0.73554 z m -0.41997,2.055 2.15111,7.81952 1.92836,-0.53049 -2.15111,-7.81951 q -0.13502,-0.37772 -0.48528,-0.51991 -0.31603,-0.13086 -0.68242,-0.0301 -0.37603,0.10345 -0.5903,0.38019 -0.23524,0.31363 -0.17036,0.70027 z m 4.85662,-30.22518 -0.75702,10.10167 q -0.009,0.11967 -0.21263,0.29494 -0.19295,0.16604 -0.31261,0.15707 l -6.11286,-0.45809 q -0.33782,-0.17574 -0.31166,-0.52476 0.0299,-0.39888 0.45619,-0.46721 l 5.53448,0.41475 0.71891,-9.5931 q 0.19642,-0.34629 0.51553,-0.32238 0.29916,0.0224 0.48167,0.39711 z m -0.0975,-14.49649 q 0.4849,0.12197 0.749,0.30183 0.25685,0.16772 0.60549,0.58538 0.8571,1.0199 0.96383,2.68627 0.0758,1.25645 -0.26573,2.61415 -0.20247,0.80493 -0.25607,0.97705 -0.15833,0.46544 -0.50359,1.05916 -0.80238,1.38614 -1.788,2.025 -1.06332,0.70182 -2.18828,0.41885 -0.85341,-0.21467 -1.34723,-0.87508 -1.52744,-2.04437 -0.70536,-5.31256 0.18052,-0.71765 0.32171,-1.07397 0.65244,-1.69196 1.8156,-2.66769 1.27002,-1.07259 2.59863,-0.73839 z m -0.24394,0.96979 q -1.03767,-0.26102 -2.10897,0.92343 -0.80166,0.89137 -1.10861,1.82469 -0.20949,0.62786 -0.30463,1.00608 -0.28785,1.14435 -0.23799,1.88901 0.014,0.39535 0.0857,1.09396 0.35406,1.70797 1.47901,1.99094 1.21224,0.30492 2.29848,-1.14387 0.85294,-1.13626 1.22373,-2.61034 0.37079,-1.47408 0.2004,-2.72338 -0.12244,-0.86603 -0.50238,-1.44625 -0.40409,-0.64815 -1.02476,-0.80427 z m 4.50788,-14.64649 q 0.89052,0.38467 1.14348,1.21924 0.92189,-0.30171 1.70782,0.0474 0.54833,0.24359 0.83474,0.73193 0.31485,0.52285 0.27943,1.21836 -0.0203,0.34116 -0.069,0.45083 l -3.54424,7.97817 q -0.0447,0.10053 -0.28629,0.20109 -0.24164,0.10056 -0.36044,0.0478 l -5.50156,-2.44402 q -0.15536,-0.069 -0.22038,-0.31675 -0.065,-0.24773 -7e-5,-0.39396 l 3.4874,-7.85023 q 0.13803,-0.31072 0.51366,-0.61437 0.37969,-0.31279 0.73505,-0.37377 0.78687,-0.12096 1.28037,0.0983 z m -1.61824,1.32733 -3.29253,7.41157 1.81862,0.80791 3.29253,-7.41157 q 0.13498,-0.37773 -0.0458,-0.70972 -0.16149,-0.30153 -0.50876,-0.4558 -0.35642,-0.15834 -0.69756,-0.0801 -0.38074,0.0935 -0.56649,0.43771 z m 2.74164,1.21796 -3.29253,7.41156 1.81862,0.80791 3.29253,-7.41157 q 0.13498,-0.37773 -0.0458,-0.70972 -0.16149,-0.30153 -0.50876,-0.4558 -0.35642,-0.15833 -0.69756,-0.0801 -0.38074,0.0935 -0.56649,0.43771 z m 10.6393,-12.16262 q 0.31002,0.36385 0.12095,0.64643 -0.13347,0.19947 -0.54981,0.39014 -0.29419,0.116 -0.59394,0.2403 -1.67937,0.83755 -4.38565,2.09495 -3.77492,1.75761 -4.43278,2.07545 l 4.3135,2.88615 q 0.30183,0.28618 0.0571,0.65187 -0.19464,0.29089 -0.56338,0.21261 l -5.21111,-3.48673 q -0.1991,-0.3498 -0.0323,-0.59913 0.13346,-0.19947 0.56087,-0.37071 0.32749,-0.1298 0.66054,-0.26792 1.72937,-0.87629 4.35792,-2.08945 2.20108,-1.00585 4.39385,-2.01727 l -4.3135,-2.88615 q -0.29902,-0.30836 -0.0599,-0.66574 0.19463,-0.29089 0.58281,-0.22367 z m 9.524,-9.37319 -7.06428,7.41307 q -0.35728,0.14299 -0.60342,-0.0916 -0.2389,-0.22766 -0.11327,-0.59142 l 3.1803,-3.33732 -3.6269,-3.45626 -3.1803,3.33733 q -0.35695,0.15713 -0.61032,-0.0843 -0.28958,-0.27595 -0.0653,-0.65623 l 6.96769,-7.31171 q 0.3549,-0.24197 0.65172,0.0409 0.25337,0.24146 0.12051,0.59831 l -3.18721,3.34457 3.6269,3.45625 3.18721,-3.34456 q 0.36452,-0.1361 0.58894,0.0778 0.22442,0.21386 0.12775,0.60521 z m 10.91175,-8.83401 q 0.0715,0.0964 0.034,0.3482 -0.0374,0.25179 -0.14186,0.32921 l -6.0494,4.48393 q -0.10444,0.0774 -0.66539,0.24424 -0.48477,0.13527 -0.55084,0.1469 -0.32022,0.0382 -0.64611,0.0184 -0.53184,-0.029 -1.09054,-0.26216 -0.60453,-0.26141 -0.96682,-0.56546 -0.25482,-0.20944 -0.55852,-0.61917 -0.53592,-0.72303 -0.68983,-1.80392 -0.0325,-0.26218 0.0723,-1.11161 0.0439,-0.34375 0.37322,-0.92391 0.33731,-0.5861 0.61046,-0.78856 l 6.01727,-4.46011 q 0.15264,-0.11314 0.39819,-0.0338 0.20359,0.0731 0.2691,0.16152 0.0595,0.0803 0.0742,0.31843 0.0147,0.23809 -0.0898,0.3155 l -6.0494,4.48393 q -0.10444,0.0774 -0.31445,0.43223 -0.1877,0.30094 -0.21624,0.39678 -0.47935,1.30132 0.34836,2.41801 0.46447,0.62663 1.18894,0.89872 0.78639,0.28845 1.58599,0.007 0.15623,-0.0411 0.38477,-0.13584 l 5.55131,-4.11473 -1.19095,-1.60675 -6.11367,4.53157 q -0.11247,0.0834 -0.36786,-0.0261 -0.19348,-0.0931 -0.23516,-0.14933 -0.0536,-0.0723 -0.0763,-0.30443 -0.0206,-0.24612 0.0838,-0.32353 l 6.53142,-4.84122 q 0.11247,-0.0834 0.35623,-0.04 0.24584,0.0294 0.32325,0.13383 z m 25.36535,-10.27528 q 0.0348,0.11483 -0.0851,0.33934 -0.11998,0.22451 -0.24438,0.26226 l -7.20559,2.18639 q -0.1244,0.0377 -0.70878,0.006 -0.50202,-0.0358 -0.56814,-0.0471 -0.3144,-0.0718 -0.6146,-0.20017 -0.49106,-0.20631 -0.93869,-0.61389 -0.48129,-0.44963 -0.72011,-0.85787 -0.16947,-0.28299 -0.31755,-0.77101 -0.26132,-0.86123 -0.0425,-1.93086 0.0576,-0.25784 0.44218,-1.02244 0.15707,-0.30891 0.66239,-0.7444 0.51489,-0.43839 0.84025,-0.53711 l 7.16731,-2.17478 q 0.18182,-0.0552 0.38633,0.10223 0.1671,0.1374 0.19904,0.24267 0.029,0.0957 -0.0373,0.32482 -0.0663,0.22913 -0.19072,0.26687 l -7.2056,2.1864 q -0.1244,0.0377 -0.44157,0.30119 -0.27804,0.22022 -0.33717,0.30086 -0.88935,1.06407 -0.48575,2.39419 0.22648,0.74639 0.81711,1.24644 0.64344,0.53628 1.49113,0.54032 0.16096,0.0139 0.40804,0.002 l 6.61231,-2.00637 -0.58072,-1.91384 -7.28215,2.20962 q -0.13397,0.0407 -0.33762,-0.14836 -0.15086,-0.15278 -0.17119,-0.21976 -0.0261,-0.0861 0.0306,-0.31235 0.0634,-0.2387 0.18782,-0.27644 l 7.77975,-2.36061 q 0.13397,-0.0407 0.34891,0.0822 0.2216,0.11041 0.25935,0.23481 z m 13.61806,-1.78534 q -0.018,0.42542 -0.45463,0.47939 -0.45653,0.0564 -0.5676,-0.35305 l -0.63661,-5.1508 q -1.19953,0.97449 -4.06525,3.14238 -0.0832,0.0607 -0.81827,-0.2616 -1.33256,-0.59101 -4.01875,-1.7805 l 0.63662,5.15081 q -0.0192,0.41549 -0.45585,0.46946 -0.34736,0.0429 -0.52924,-0.28725 l -0.76909,-6.22265 q 0.0798,-0.33231 0.39742,-0.37156 0.22827,-0.0282 0.49723,0.10984 0.92465,0.47013 2.40351,1.10351 2.23257,0.94327 2.45693,1.04653 1.40682,-1.0908 4.22047,-3.2724 0.0994,-0.0929 0.27565,-0.21544 0.067,-0.0284 0.13649,-0.037 0.17864,-0.0221 0.34468,0.0985 0.17474,0.10939 0.19314,0.25826 z m 13.92809,-3.91926 q -0.0372,0.96934 -0.72413,1.50656 0.61421,0.75077 0.57238,1.60975 -0.0292,0.59929 -0.38116,1.04269 -0.37391,0.48239 -1.0353,0.70048 -0.32545,0.10429 -0.44531,0.0985 l -8.71967,-0.4246 q -0.10987,-0.005 -0.29089,-0.19438 -0.18102,-0.18903 -0.1747,-0.31887 l 0.2928,-6.01288 q 0.008,-0.1698 0.21581,-0.31988 0.20754,-0.15008 0.36736,-0.1423 l 8.57983,0.41779 q 0.3396,0.0165 0.75839,0.25719 0.42878,0.24114 0.61395,0.55051 0.3969,0.69012 0.37064,1.22948 z m -1.82207,-1.02984 -8.1004,-0.39444 -0.0968,1.98764 8.1004,0.39445 q 0.40099,-0.0105 0.64531,-0.29897 0.22288,-0.25947 0.24136,-0.63902 0.019,-0.38954 -0.17716,-0.67942 -0.22464,-0.3213 -0.61272,-0.37024 z m -0.14591,2.99645 -8.1004,-0.39444 -0.0968,1.98764 8.1004,0.39445 q 0.40099,-0.0105 0.64531,-0.29897 0.22288,-0.25947 0.24136,-0.63902 0.019,-0.38954 -0.17716,-0.67942 -0.22464,-0.32131 -0.61272,-0.37024 z m 15.15956,5.63759 q -0.24237,0.30439 -0.5644,0.23229 -0.33178,-0.0743 -0.41144,-0.4508 l 0.57249,-2.55669 -8.79228,-1.96874 -0.57249,2.55669 q -0.23261,0.30658 -0.55463,0.23447 -0.33179,-0.0743 -0.41144,-0.4508 l 1.36348,-6.08921 q 0.22285,-0.30877 0.55463,-0.23447 0.4001,0.0896 0.39615,0.5191 l -0.55719,2.48838 8.79227,1.96874 0.57249,-2.55668 q 0.24456,-0.31416 0.54706,-0.24642 0.30251,0.0677 0.42878,0.46492 z"
       id="text1-3-1"
       transform="rotate(90,557.53602,914.01908)"
       aria-label="DL DIETMAR LOBNIG GMBH" />
    <path
       id="path10-1-4"
       style="fill:none;stroke-width:0.80851;stroke-linejoin:bevel"
       transform="rotate(71.200015)"
       d="m 1125.0112,-233.3797 a 79.827339,79.827164 0 0 1 -79.8274,79.82716 79.827339,79.827164 0 0 1 -79.8273,-79.82716 79.827339,79.827164 0 0 1 79.8273,-79.82716 79.827339,79.827164 0 0 1 79.8274,79.82716 z" />
    <path
       id="path10-4-0-2"
       style="fill:none;stroke-width:0.87672;stroke-linejoin:bevel"
       transform="matrix(-0.64583011,0.76348115,0.76350898,0.64579721,0,0)"
       d="m 424.256,1015.3177 a 86.569908,86.553764 0 0 1 -86.5699,86.5538 86.569908,86.553764 0 0 1 -86.56991,-86.5538 86.569908,86.553764 0 0 1 86.56991,-86.55378 86.569908,86.553764 0 0 1 86.5699,86.55378 z" />
    <path
       d="m 511.31469,987.74901 -8.22743,-5.90984 q -0.0975,-0.07 -0.14677,-0.32705 -0.0412,-0.2512 0.0347,-0.35678 l 3.51207,-4.88936 q 0.0992,-0.13807 0.35496,-0.15134 0.25578,-0.0133 0.38573,0.0801 l 8.11373,5.82817 q 0.29673,0.32396 0.0575,0.65695 -0.20419,0.28427 -0.58409,0.19607 l -7.8051,-5.60647 -1.17263,1.63249 7.8051,5.60647 q 0.19321,0.3481 0.0123,0.59987 -0.18085,0.25178 -0.58992,0.2042 l -7.8051,-5.60648 -1.17263,1.6325 7.8051,5.60647 q 0.19321,0.34809 0.0124,0.59987 -0.18086,0.25178 -0.58993,0.20419 z m 14.97128,0.92963 -7.86723,-3.94294 q -0.40243,-0.0675 -0.72011,0.0977 -0.3132,0.15622 -0.46106,0.45125 -0.33604,0.6705 0.28505,1.23905 l 6.61562,3.31565 q 0.66141,0.48809 0.81276,1.23508 0.14245,0.69779 -0.18464,1.35041 -0.31812,0.63474 -0.93108,0.92038 -0.68005,0.30793 -1.48928,0.0701 l -7.90299,-3.96086 q -0.24121,-0.29986 -0.0889,-0.60382 0.14786,-0.29502 0.53693,-0.29018 l 7.86723,3.94294 q 0.81825,0.15282 1.1543,-0.51768 0.14786,-0.29502 0.0856,-0.63943 -0.0578,-0.35336 -0.34376,-0.6309 l -6.61562,-3.31565 q -0.68378,-0.48811 -0.8396,-1.22616 -0.14695,-0.66649 0.18013,-1.31911 0.33605,-0.6705 0.98926,-0.96952 0.72032,-0.32131 1.52503,-0.0299 l 7.77783,3.89813 q 0.33515,0.26865 0.15145,0.63519 -0.15682,0.3129 -0.53693,0.29018 z m 12.23631,3.9078 -4.41452,-1.39606 -1.69758,5.36797 q -0.25809,0.28547 -0.57273,0.18596 -0.32417,-0.10251 -0.37119,-0.48447 l 1.69457,-5.35843 -4.40498,-1.39305 q -0.295,-0.2611 -0.19248,-0.58528 0.12061,-0.38138 0.56074,-0.34707 l 9.62993,3.0454 q 0.37633,0.20292 0.24969,0.60337 -0.10553,0.33371 -0.48145,0.36166 z m 7.83834,6.58405 q -0.0634,0.4253 -0.40142,0.65801 -0.33801,0.2327 -0.73364,0.1737 -0.43519,-0.0649 -0.66936,-0.39299 -0.23565,-0.31823 -0.17372,-0.73363 0.0575,-0.38574 0.39994,-0.64811 0.35233,-0.2609 0.73806,-0.20339 0.41541,0.0619 0.65358,0.43109 0.23964,0.35926 0.18656,0.71532 z m 30.39495,-0.73655 -8.12324,1.38223 q -0.37355,-0.10888 -0.42891,-0.43421 -0.0554,-0.32532 0.26117,-0.55162 l 3.53913,-0.60221 -0.55356,-3.25324 q -0.25025,0.37732 -0.70774,0.72905 -0.45748,0.35172 -0.85978,0.49118 -0.0476,0.0183 -0.21668,0.0977 -0.11327,0.0497 -0.22171,0.0681 -0.17745,0.0302 -0.45536,0.006 -0.0625,-0.01 -0.19444,-0.12922 -0.12374,-0.1311 -0.14051,-0.22968 -0.0587,-0.34504 0.1823,-0.53821 0.0705,-0.0627 0.26596,-0.10612 0.29575,-0.0503 0.31547,-0.0537 0.25128,-0.0732 0.47929,-0.22357 0.19193,-0.12395 0.38218,-0.25776 0.0721,-0.0528 0.40065,-0.62608 0.35619,-0.64894 0.42081,-0.98454 -0.0189,-0.2301 0.0109,-0.65106 0.0862,-0.26827 0.37211,-0.31691 0.43376,-0.0738 0.60448,0.33332 l 0.93098,5.47136 3.56871,-0.60724 q 0.38341,0.10721 0.43709,0.42267 0.0503,0.29575 -0.26935,0.56316 z m 9.83203,-3.63971 q -0.13806,0.21574 -0.26664,0.42826 -0.18204,0.27288 -0.32394,0.35265 -0.1671,0.0989 -0.3891,-0.0265 -0.20931,-0.11911 -0.27672,-0.318 -0.0193,-0.0568 -0.0226,-0.0979 -0.0133,-0.13275 0.35381,-0.70065 l 1.569,-2.41127 -5.66994,1.90068 q -0.47643,0.21427 -1.22749,-0.10133 -0.7859,-0.32492 -1.00691,-0.88354 -0.0128,-0.0379 -0.0767,-0.16405 -0.0671,-0.13564 -0.0896,-0.20194 -0.0546,-0.161 -0.0765,-0.7554 -0.0183,-0.49007 0.3901,-1.02973 0.37691,-0.50787 0.8031,-0.65232 l 6.91366,-2.34335 q 0.22119,-0.0327 0.65428,-0.0634 0.59151,0.0318 1.08092,0.51001 0.42905,0.42475 0.63129,1.02141 0.15408,0.4546 0.0894,0.79329 -0.41384,0.71045 -0.67759,1.08493 -1.03861,1.60853 -2.38175,3.65816 z m 2.09029,-5.01649 q 0.0405,-0.12986 -0.0173,-0.30033 -0.11556,-0.34095 -0.48363,-0.58575 -0.37127,-0.25428 -0.73116,-0.1323 l -6.81895,2.31126 q -0.35957,0.18522 -0.48431,0.53371 -0.12473,0.34848 -0.006,0.6989 0.10914,0.32201 0.38844,0.52299 0.28877,0.19777 0.68702,0.15781 l 6.91366,-2.34335 q 0.25122,-0.34912 0.55221,-0.86294 z m 10.3536,-0.64654 q -0.10233,0.23479 -0.19582,0.46492 -0.13676,0.29816 -0.26432,0.39929 -0.14944,0.12398 -0.38842,0.0352 -0.22546,-0.0846 -0.32337,-0.27042 -0.028,-0.0531 -0.0378,-0.0931 -0.0341,-0.12899 0.23898,-0.74765 l 1.16943,-2.62839 -5.29959,2.7704 q -0.43672,0.28668 -1.22813,0.0934 -0.82727,-0.19702 -1.13355,-0.71383 -0.0187,-0.0354 -0.10162,-0.14991 -0.0876,-0.12338 -0.12026,-0.1853 -0.0793,-0.1504 -0.19463,-0.73391 -0.0953,-0.48106 0.22296,-1.07833 0.29218,-0.56092 0.69028,-0.77073 l 6.45801,-3.40353 q 0.21328,-0.0672 0.63612,-0.16569 0.58914,-0.0618 1.14778,0.3333 0.49063,0.35183 0.78436,0.90917 0.22379,0.42464 0.21327,0.76929 -0.29672,0.76679 -0.49816,1.17815 -0.77216,1.7521 -1.77554,3.98778 z m 1.27368,-5.2832 q 0.0195,-0.13462 -0.0644,-0.29385 -0.16784,-0.31848 -0.56988,-0.50223 -0.40671,-0.19259 -0.74288,-0.0154 l -6.36955,3.35691 q -0.32589,0.23957 -0.39415,0.60336 -0.0683,0.36378 0.10425,0.69111 0.15852,0.30078 0.466,0.45524 0.31632,0.14979 0.7033,0.0476 l 6.45801,-3.40353 q 0.19308,-0.38435 0.40934,-0.93917 z m 5.59951,-6.90301 q 0.12204,-0.15397 0.36402,-0.0979 0.24999,0.0501 0.37595,0.21809 0.03,0.04 0.052,0.086 0.05,0.15001 -0.11818,0.77597 -0.24622,0.92194 -0.74666,2.77182 l 4.79685,-3.57087 q 0.6161,-0.46185 1.47406,-0.26765 0.78796,0.18419 1.16783,0.72428 0.41386,0.60209 0.43369,1.3121 0.0218,0.696 -0.62033,1.38985 l -5.95305,4.4626 q -0.13802,0.066 -0.44804,0.1859 -0.64805,0.18584 -1.26999,-0.0603 -0.54595,-0.22813 -0.89983,-0.70022 -0.25193,-0.33606 -0.30385,-0.67207 -0.01,-0.03 0.0882,-0.61598 0.10614,-0.59197 0.16419,-0.79796 0.49243,-1.84388 1.07494,-4.01775 0.0721,-0.30398 0.14415,-0.60796 0.0961,-0.37198 0.22412,-0.51795 z m 6.5554,2.55955 q 0.49016,-0.67989 0.0343,-1.288 -0.20993,-0.28005 -0.56191,-0.36613 -0.35198,-0.0861 -0.72803,0.0958 l -5.76101,4.31864 q -0.048,0.036 -0.16611,0.46196 -0.13211,0.47397 -0.0882,0.66598 0.024,0.082 0.09,0.17002 0.20993,0.28005 0.6339,0.41215 0.41797,0.1241 0.65001,-0.0498 z"
       id="text11-7-5"
       style="font-size:10px;line-height:0px;font-family:'7 days';-inkscape-font-specification:'7 days';fill:#ffffff;stroke:#ffffff;stroke-width:0.1;stroke-linejoin:bevel"
       aria-label="EST. 1996" />
    <path
       d="m 560.21704,864.19309 c 3.63419,2.69688 5.65207,5.75619 6.58051,10.15819 1.10612,8.39852 -0.87108,16.40502 -3.74387,24.23616 0.117,0.117 0.23403,0.23402 0.35458,0.35458 0.0397,-0.35652 0.0397,-0.35652 0.0802,-0.72025 0.3673,-1.40986 1.04847,-2.4893 1.82553,-3.71201 0.23696,-0.37452 0.23696,-0.37452 0.47873,-0.7566 1.60275,-2.47654 3.4158,-4.70354 5.41619,-6.86689 0.17289,-0.18843 0.34578,-0.37686 0.5239,-0.571 2.31142,-2.49211 4.63304,-4.50902 7.63146,-6.16604 0.25137,-0.14489 0.50278,-0.28978 0.76179,-0.43907 3.08412,-1.67616 6.44671,-2.178 9.85347,-1.28951 3.25897,1.07131 5.8454,3.07352 7.55839,6.04588 1.29724,2.76175 1.49128,5.83739 0.68975,8.78142 -0.58293,1.51028 -1.29869,2.9266 -2.19812,4.27574 0.33459,0.0459 0.33459,0.0459 0.67592,0.0928 3.85773,0.63327 6.23944,2.43273 8.54319,5.58049 1.55211,2.70279 1.68156,5.94768 1.01943,8.93102 -1.0463,3.61994 -3.14241,6.31459 -6.44894,8.20246 -8.05583,3.57742 -17.55742,1.1987 -25.63622,-0.95303 -0.75346,-0.19961 -1.5082,-0.39192 -2.26486,-0.57888 0.45113,0.27768 0.45113,0.27768 0.91138,0.56096 7.63696,4.76405 15.33432,10.65864 18.08501,19.60306 0.65261,3.26905 0.36009,6.69924 -1.26735,9.62078 -2.03664,2.89523 -4.62158,4.98804 -8.15535,5.6733 -3.44784,0.3125 -6.71948,-0.1383 -9.46291,-2.39343 -0.40586,-0.39492 -0.40586,-0.39492 -0.81994,-0.7978 -0.0654,0.21482 -0.13068,0.42966 -0.19807,0.65098 -1.05095,3.03609 -2.92341,5.64973 -5.71902,7.32707 -3.25905,1.47582 -6.73402,1.92703 -10.17203,0.68701 -3.36879,-1.57653 -5.57238,-4.21397 -6.84784,-7.6678 -1.92837,-6.38772 -1.04518,-12.61731 -0.1108,-19.08089 -5.095,10.55481 -9.34413,21.68483 -6.82292,33.54389 0.0859,0.85046 0.0859,0.85046 -0.62328,1.91421 -1.25621,0.41873 -2.22805,0.4504 -3.54581,0.35457 -2.10347,-3.15521 -0.94948,-9.83575 -0.32697,-13.46619 0.29059,-1.43739 0.6413,-2.85071 1.03613,-4.26285 0.0818,-0.29288 0.16363,-0.58576 0.24793,-0.88751 1.73438,-5.99461 4.37917,-11.64252 7.19827,-17.19612 -0.49545,0.54619 -0.99026,1.09296 -1.48481,1.63993 -0.44153,0.48816 -0.44153,0.48816 -0.89199,0.98618 -0.58175,0.65695 -1.13903,1.33587 -1.67872,2.02776 -3.37613,3.78786 -8.25525,7.00633 -13.37573,7.51268 -3.90607,0.1462 -6.999,-0.99573 -9.87148,-3.65659 -2.02886,-2.15041 -2.86412,-4.87916 -2.96961,-7.8008 0.0969,-2.80156 0.9195,-5.22446 2.61503,-7.4462 -0.40519,-0.1166 -0.40519,-0.1166 -0.81858,-0.23547 -4.00619,-1.23036 -6.74806,-2.7178 -8.7551,-6.50156 -1.4889,-3.30286 -1.22262,-6.57837 0,-9.92828 1.4828,-3.31616 3.74019,-5.42101 7.06946,-6.84784 0.59434,-0.2111 1.19278,-0.41109 1.79506,-0.59836 0.38394,-0.11998 0.38394,-0.11998 0.77565,-0.24239 7.89922,-1.98852 16.49202,0.51233 24.04501,2.72446 -0.51421,-0.33458 -0.51421,-0.33458 -1.03881,-0.67592 -2.71753,-1.781 -5.34896,-3.5961 -7.82571,-5.70654 -0.2902,-0.24271 -0.58044,-0.48542 -0.87948,-0.73548 -4.41835,-3.81554 -8.90334,-8.96864 -9.48781,-15.03368 -0.10034,-3.50174 0.66418,-6.45237 2.92114,-9.18447 2.47332,-2.51792 5.43482,-4.02906 8.98641,-4.15663 2.83406,0.1042 4.75138,0.72535 7.03621,2.43082 0.61032,0.50727 0.61032,0.50727 1.35184,0.44045 0.0653,-0.21482 0.13072,-0.42965 0.19806,-0.65098 1.07424,-3.10335 2.96567,-5.80895 5.94062,-7.34925 3.33999,-1.30203 8.02674,-1.66806 11.2358,0.19945 z"
       fill="#c3c3c3"
       id="path2-4-6"
       style="fill:#ffffff;fill-opacity:1;stroke:#ffffff;stroke-width:0.354581;stroke-opacity:1" />
  </g>
</svg>
