<?xml version="1.0" encoding="UTF-8" standalone="no"?>
<!-- Created with Inkscape (http://www.inkscape.org/) -->

<svg
   width="173.12465mm"
   height="173.1227mm"
   viewBox="0 0 173.12465 173.1227"
   version="1.1"
   id="svg1"
   xmlns="http://www.w3.org/2000/svg"
   xmlns:svg="http://www.w3.org/2000/svg">
  <defs
     id="defs1">
    <linearGradient
       id="swatch4">
      <stop
         style="stop-color:#000000;stop-opacity:1;"
         offset="0"
         id="stop4" />
    </linearGradient>
  </defs>
  <g
     id="layer1"
     transform="translate(-576.8032,-568.86286)">
    <ellipse
       style="baseline-shift:-100%;fill:none;stroke:#ffffff;stroke-width:1.2;stroke-linecap:round;stroke-dasharray:none;stroke-opacity:1"
       id="path1-8-8-2"
       cx="663.86505"
       cy="655.92755"
       rx="71.982361"
       ry="71.982368" />
    <ellipse
       style="fill:none;fill-opacity:1;stroke:none;stroke-width:0.80851;stroke-linecap:butt;stroke-linejoin:bevel;stroke-dasharray:none;stroke-dashoffset:0;stroke-opacity:1"
       id="path10-1-5"
       transform="rotate(71.200015)"
       cx="835.11102"
       cy="-417.13135"
       rx="79.827339"
       ry="79.827164" />
    <ellipse
       style="fill:none;fill-opacity:1;stroke:none;stroke-width:0.87672;stroke-linecap:butt;stroke-linejoin:bevel;stroke-dasharray:none;stroke-dashoffset:0;stroke-opacity:1"
       id="path10-4-0-8"
       transform="matrix(-0.64583011,0.76348115,0.76350898,0.64579721,0,0)"
       cx="72.022705"
       cy="929.75977"
       rx="86.569908"
       ry="86.553764" />
    <path
       d="m 666.46622,606.11102 c 3.63419,2.69688 5.65207,5.75619 6.58051,10.15819 1.10612,8.39852 -0.87108,16.40502 -3.74387,24.23616 0.117,0.117 0.23403,0.23402 0.35458,0.35458 0.0397,-0.35652 0.0397,-0.35652 0.0802,-0.72025 0.3673,-1.40986 1.04847,-2.4893 1.82553,-3.71201 0.23696,-0.37452 0.23696,-0.37452 0.47873,-0.7566 1.60275,-2.47654 3.4158,-4.70354 5.41619,-6.86689 0.17289,-0.18843 0.34578,-0.37686 0.5239,-0.571 2.31142,-2.49211 4.63304,-4.50902 7.63146,-6.16604 0.25137,-0.14489 0.50278,-0.28978 0.76179,-0.43907 3.08412,-1.67616 6.44671,-2.178 9.85347,-1.28951 3.25897,1.07131 5.8454,3.07352 7.55839,6.04588 1.29724,2.76175 1.49128,5.83739 0.68975,8.78142 -0.58293,1.51028 -1.29869,2.9266 -2.19812,4.27574 0.33459,0.0459 0.33459,0.0459 0.67592,0.0928 3.85773,0.63327 6.23944,2.43273 8.54319,5.58049 1.55211,2.70279 1.68156,5.94768 1.01943,8.93102 -1.0463,3.61994 -3.14241,6.31459 -6.44894,8.20246 -8.05583,3.57742 -17.55742,1.1987 -25.63622,-0.95303 -0.75346,-0.19961 -1.5082,-0.39192 -2.26486,-0.57888 0.45113,0.27768 0.45113,0.27768 0.91138,0.56096 7.63696,4.76405 15.33432,10.65864 18.08501,19.60306 0.65261,3.26905 0.36009,6.69924 -1.26735,9.62078 -2.03664,2.89523 -4.62158,4.98804 -8.15535,5.6733 -3.44784,0.3125 -6.71948,-0.1383 -9.46291,-2.39343 -0.40586,-0.39492 -0.40586,-0.39492 -0.81994,-0.7978 -0.0654,0.21482 -0.13068,0.42966 -0.19807,0.65098 -1.05095,3.03609 -2.92341,5.64973 -5.71902,7.32707 -3.25905,1.47582 -6.73402,1.92703 -10.17203,0.68701 -3.36879,-1.57653 -5.57238,-4.21397 -6.84784,-7.6678 -1.92837,-6.38772 -1.04518,-12.61731 -0.1108,-19.08089 -5.095,10.55481 -9.34413,21.68483 -6.82292,33.54389 0.0859,0.85046 0.0859,0.85046 -0.62328,1.91421 -1.25621,0.41873 -2.22805,0.4504 -3.54581,0.35457 -2.10347,-3.15521 -0.94948,-9.83575 -0.32697,-13.46619 0.29059,-1.43739 0.6413,-2.85071 1.03613,-4.26285 0.0818,-0.29288 0.16363,-0.58576 0.24793,-0.88751 1.73438,-5.99461 4.37917,-11.64252 7.19827,-17.19612 -0.49545,0.54619 -0.99026,1.09296 -1.48481,1.63993 -0.44153,0.48816 -0.44153,0.48816 -0.89199,0.98618 -0.58175,0.65695 -1.13903,1.33587 -1.67872,2.02776 -3.37613,3.78786 -8.25525,7.00633 -13.37573,7.51268 -3.90607,0.1462 -6.999,-0.99573 -9.87148,-3.65659 -2.02886,-2.15041 -2.86412,-4.87916 -2.96961,-7.8008 0.0969,-2.80156 0.9195,-5.22446 2.61503,-7.4462 -0.40519,-0.1166 -0.40519,-0.1166 -0.81858,-0.23547 -4.00619,-1.23036 -6.74806,-2.7178 -8.7551,-6.50156 -1.4889,-3.30286 -1.22262,-6.57837 0,-9.92828 1.4828,-3.31616 3.74019,-5.42101 7.06946,-6.84784 0.59434,-0.2111 1.19278,-0.41109 1.79506,-0.59836 0.38394,-0.11998 0.38394,-0.11998 0.77565,-0.24239 7.89922,-1.98852 16.49202,0.51233 24.04501,2.72446 -0.51421,-0.33458 -0.51421,-0.33458 -1.03881,-0.67592 -2.71753,-1.781 -5.34896,-3.5961 -7.82571,-5.70654 -0.2902,-0.24271 -0.58044,-0.48542 -0.87948,-0.73548 -4.41835,-3.81554 -8.90334,-8.96864 -9.48781,-15.03368 -0.10034,-3.50174 0.66418,-6.45237 2.92114,-9.18447 2.47332,-2.51792 5.43482,-4.02906 8.98641,-4.15663 2.83406,0.1042 4.75138,0.72535 7.03621,2.43082 0.61032,0.50727 0.61032,0.50727 1.35184,0.44045 0.0653,-0.21482 0.13072,-0.42965 0.19806,-0.65098 1.07424,-3.10335 2.96567,-5.80895 5.94062,-7.34925 3.33999,-1.30203 8.02674,-1.66806 11.2358,0.19945 z"
       fill="#c3c3c3"
       id="path2-4-7"
       style="fill:#ffffff;fill-opacity:1;stroke:#ffffff;stroke-width:0.354581;stroke-opacity:1" />
  </g>
</svg>
