<?xml version="1.0" encoding="UTF-8" standalone="no"?>
<!-- Created with Inkscape (http://www.inkscape.org/) -->

<svg
   width="190.24837mm"
   height="190.24826mm"
   viewBox="0 0 190.24837 190.24826"
   version="1.1"
   id="svg1"
   xmlns="http://www.w3.org/2000/svg"
   xmlns:svg="http://www.w3.org/2000/svg">
  <defs
     id="defs1">
    <linearGradient
       id="swatch4">
      <stop
         style="stop-color:#000000;stop-opacity:1;"
         offset="0"
         id="stop4" />
    </linearGradient>
  </defs>
  <g
     id="layer1"
     transform="translate(245.00417,-993.51046)">
    <path
       id="path1-9"
       style="fill:none;stroke:#000000;stroke-width:1.2;stroke-linecap:round"
       d="m -55.355789,1088.6346 a 94.524185,94.524185 0 0 1 -94.524181,94.5242 94.524185,94.524185 0 0 1 -94.52419,-94.5242 94.524185,94.524185 0 0 1 94.52419,-94.52414 94.524185,94.524185 0 0 1 94.524181,94.52414 z" />
    <path
       id="path1-8-2"
       style="baseline-shift:-100%;fill:none;stroke:#000000;stroke-width:1.2;stroke-linecap:round"
       d="m -77.897629,1088.6346 a 71.982361,71.982368 0 0 1 -71.982361,71.9824 71.982361,71.982368 0 0 1 -71.98236,-71.9824 71.982361,71.982368 0 0 1 71.98236,-71.9823 71.982361,71.982368 0 0 1 71.982361,71.9823 z" />
    <path
       style="font-size:10px;line-height:0px;font-family:'7 days';-inkscape-font-specification:'7 days, Normal';stroke:#000000;stroke-width:0.1;stroke-linejoin:bevel"
       d="m -136.17437,1170.8556 q -0.12717,-0.5145 -0.10185,-0.9122 0.008,-0.3419 0.17007,-1.0206 0.14716,-0.6132 0.70674,-1.2666 0.43065,-0.5082 1.09602,-0.8168 0.25983,-0.1157 0.19187,-0.099 l 7.31003,-1.8067 q 0.10678,-0.026 0.33442,0.1027 0.21793,0.1316 0.24913,0.2578 l 1.44445,5.8441 q 0.0408,0.1651 -0.11497,0.3684 -0.15577,0.2033 -0.30139,0.2393 l -7.17411,1.7732 q -0.58247,0.1439 -1.5299,-0.1885 -0.94743,-0.3323 -1.3221,-0.8063 -0.0629,-0.046 -0.2008,-0.1873 -0.52966,-0.5592 -0.75761,-1.4815 z m 0.97079,-0.2399 q 0.17995,0.7281 0.70002,1.2485 0.62652,0.6177 1.49956,0.6491 0.45834,0.021 0.49478,0 l 6.64018,-1.6412 -1.19732,-4.8443 -6.64018,1.6412 q -0.1165,0.029 -0.43719,0.2317 -0.74587,0.4831 -1.00746,1.2585 -0.24195,0.6882 -0.0524,1.4551 z m -15.03654,-2.1769 10.10471,-0.7154 q 0.1197,-0.01 0.32264,0.1676 0.19226,0.1669 0.20074,0.2866 l 0.4329,6.1147 q -0.12491,0.3597 -0.47404,0.3844 -0.399,0.028 -0.52841,-0.3836 l -0.39194,-5.5362 -9.59598,0.6794 q -0.37111,-0.1442 -0.39371,-0.4634 -0.0212,-0.2992 0.32309,-0.5341 z m -28.08156,-1.5365 q 0.14269,-0.5104 0.36056,-0.8441 0.17552,-0.2935 0.65061,-0.8045 0.43006,-0.4613 1.23882,-0.7543 0.62506,-0.2303 1.35617,-0.1713 0.28312,0.027 0.2157,0.01 l 7.252,2.0272 q 0.10594,0.03 0.24046,0.2541 0.1249,0.2218 0.0899,0.347 l -1.62067,5.7978 q -0.0458,0.1637 -0.28145,0.2639 -0.23569,0.1003 -0.38016,0.06 l -7.11716,-1.9895 q -0.57785,-0.1615 -1.23877,-0.9173 -0.66092,-0.7559 -0.75362,-1.3529 -0.032,-0.071 -0.0825,-0.2619 -0.1856,-0.7475 0.0702,-1.6625 z m 0.96308,0.2693 q -0.20191,0.7223 -0.006,1.4313 0.24111,0.8462 0.98548,1.3034 0.38876,0.2437 0.42997,0.2448 l 6.58747,1.8415 1.34338,-4.8058 -6.58747,-1.8414 q -0.11557,-0.032 -0.49458,-0.014 -0.88706,0.053 -1.49657,0.5992 -0.54946,0.4798 -0.76214,1.2407 z m -12.02837,-9.2945 9.24623,4.4005 q 0.24728,0.2949 0.10117,0.6019 -0.14182,0.298 -0.52661,0.2921 l -4.16261,-1.9811 -2.153,4.5237 4.16261,1.9811 q 0.2606,0.2902 0.11019,0.6062 -0.17189,0.3612 -0.60314,0.2667 l -9.11982,-4.3404 q -0.34056,-0.2617 -0.16437,-0.6319 0.15041,-0.3161 0.53091,-0.3011 l 4.17164,1.9854 2.153,-4.5238 -4.17165,-1.9854 q -0.24297,-0.3039 -0.10975,-0.5838 0.13322,-0.2799 0.5352,-0.3101 z m -11.20037,-7.7797 8.26904,5.8514 q 0.098,0.069 0.14908,0.326 0.043,0.2509 -0.0321,0.3571 l -3.47738,4.914 q -0.0982,0.1388 -0.35388,0.1539 -0.25568,0.015 -0.38629,-0.077 l -8.15476,-5.7707 q -0.29902,-0.3218 -0.0622,-0.6565 0.20217,-0.2857 0.58269,-0.2002 l 7.84457,5.5511 1.16105,-1.6407 -7.84457,-5.5511 q -0.19567,-0.3467 -0.0166,-0.5998 0.17907,-0.2531 0.58846,-0.2084 l 7.84457,5.5511 1.16106,-1.6407 -7.84458,-5.5511 q -0.19566,-0.3467 -0.0166,-0.5998 0.17906,-0.253 0.58846,-0.2083 z m -13.98086,-5.3502 3.26715,3.2807 3.98921,-3.9728 q 0.3609,-0.1336 0.59376,0.1002 0.23992,0.2409 0.10483,0.6013 l -3.98212,3.9657 3.26009,3.2736 q 0.14066,0.368 -0.10025,0.6079 -0.28343,0.2822 -0.65771,0.048 l -7.12704,-7.1565 q -0.23969,-0.354 0.0579,-0.6504 0.248,-0.247 0.59417,-0.098 z m -4.31992,-15.3569 q 0.38404,-0.1839 0.63672,0.1763 0.26416,0.3766 -0.0452,0.6669 l -4.24889,2.9804 q 1.4236,0.6016 4.68317,2.114 0.0926,0.045 0.15321,0.8453 0.10383,1.454 0.3148,4.3842 l 4.24888,-2.9804 q 0.37586,-0.1782 0.62853,0.182 0.201,0.2866 -0.005,0.6022 l -5.13304,3.6006 q -0.33089,0.085 -0.51466,-0.1764 -0.13208,-0.1883 -0.13647,-0.4906 -0.019,-1.0371 -0.15415,-2.6402 -0.21538,-2.4141 -0.22955,-2.6607 -1.62361,-0.73 -4.87085,-2.1899 -0.12866,-0.044 -0.31964,-0.1423 -0.0566,-0.046 -0.0968,-0.1031 -0.10337,-0.1473 -0.0749,-0.3505 0.0145,-0.2057 0.13734,-0.2918 z m -9.26919,-4.4458 q -0.0932,-0.034 -0.17462,-0.183 -0.0767,-0.1629 -0.056,-0.2832 0.0739,-0.289 0.28086,-0.718 0.183,-0.3625 0.36122,-0.7117 0.6788,-1.4692 1.3528,-2.9251 1.06075,-2.3011 1.48105,-3.0517 0.0846,-0.1724 0.35657,-0.1347 0.30765,0.043 0.39711,0.233 0.11077,0.2352 -0.093,0.718 -0.16917,0.345 -0.33834,0.6899 l 3.39106,7.2015 q 0.37792,0.098 0.75584,0.1968 0.48438,0.1367 0.59088,0.3629 0.0895,0.1899 -0.0558,0.4683 -0.0468,0.088 -0.14634,0.1353 -0.20808,0.098 -0.66159,-0.02 -0.30659,-0.088 -0.59988,-0.1707 -1.4494,-0.3786 -3.27671,-0.8556 -0.83195,-0.1941 -1.66816,-0.3972 -1.04965,-0.2574 -1.89705,-0.5547 z m 3.02511,-5.1715 -2.05979,4.4517 4.72664,1.2119 z m -7.73282,-14.7996 q 0.78195,-0.1736 1.34025,0.046 0.80586,0.328 1.14099,1.1692 l 0.49335,1.7934 q 0.42654,-1.4656 1.04751,-3.8456 0.06,-0.2343 0.31671,-0.3568 0.12703,-0.066 0.3746,0.042 0.24492,0.099 0.27073,0.2678 0.0328,0.1569 -0.0142,0.3254 -0.7651,2.6477 -1.51598,5.385 l 1.17237,4.2616 2.52616,-0.6949 q 0.3799,0.061 0.47008,0.3893 0.0875,0.3181 -0.20749,0.5652 l -5.91044,1.626 q -0.17355,0.048 -0.36857,-0.096 -0.20732,-0.1504 -0.24976,-0.3047 l -2.28108,-8.2919 q -0.13893,-0.9575 0.34216,-1.5462 0.51435,-0.6185 1.05261,-0.7355 z m -0.41998,2.055 2.15111,7.8195 1.92837,-0.5305 -2.15111,-7.8195 q -0.13502,-0.3777 -0.48528,-0.5199 -0.31603,-0.1308 -0.68242,-0.03 -0.37603,0.1035 -0.5903,0.3802 -0.23524,0.3137 -0.17037,0.7003 z m 4.85666,-30.2251 -0.75702,10.1017 q -0.009,0.1196 -0.21264,0.2949 -0.19294,0.166 -0.31261,0.1571 l -6.11286,-0.4581 q -0.33781,-0.1758 -0.31165,-0.5248 0.0299,-0.3989 0.45619,-0.4672 l 5.53448,0.4147 0.7189,-9.5931 q 0.19643,-0.3462 0.51554,-0.3223 0.29916,0.022 0.48167,0.3971 z m -0.0975,-14.4965 q 0.48489,0.122 0.749,0.3018 0.25684,0.1677 0.60549,0.5854 0.8571,1.0199 0.96383,2.6863 0.0758,1.2564 -0.26573,2.6141 -0.20247,0.805 -0.25608,0.9771 -0.15832,0.4654 -0.50358,1.0591 -0.80238,1.3862 -1.788,2.025 -1.06332,0.7018 -2.18828,0.4189 -0.85342,-0.2147 -1.34723,-0.8751 -1.52744,-2.0444 -0.70536,-5.3126 0.18052,-0.7176 0.3217,-1.0739 0.65245,-1.692 1.81561,-2.6677 1.27002,-1.0726 2.59863,-0.7384 z m -0.24394,0.9698 q -1.03768,-0.261 -2.10898,0.9234 -0.80166,0.8914 -1.1086,1.8247 -0.20949,0.6279 -0.30463,1.0061 -0.28785,1.1443 -0.238,1.889 0.014,0.3953 0.0857,1.094 0.35405,1.7079 1.47901,1.9909 1.21224,0.3049 2.29847,-1.1439 0.85295,-1.1362 1.22374,-2.6103 0.37079,-1.4741 0.2004,-2.7234 -0.12244,-0.866 -0.50238,-1.4462 -0.4041,-0.6482 -1.02476,-0.8043 z m 4.50786,-14.6466 q 0.89052,0.3847 1.14348,1.2193 0.92189,-0.3017 1.70782,0.047 0.54833,0.2436 0.83474,0.7319 0.31485,0.5229 0.27943,1.2184 -0.0203,0.3412 -0.069,0.4508 l -3.54424,7.9782 q -0.0447,0.1005 -0.28629,0.2011 -0.24164,0.1005 -0.36044,0.048 l -5.50156,-2.4441 q -0.15536,-0.069 -0.22038,-0.3167 -0.065,-0.2477 -7e-5,-0.394 l 3.4874,-7.8502 q 0.13804,-0.3107 0.51366,-0.6144 0.37969,-0.3128 0.73505,-0.3737 0.78687,-0.121 1.28037,0.098 z m -1.61824,1.3274 -3.29253,7.4115 1.81862,0.8079 3.29253,-7.4115 q 0.13498,-0.3778 -0.0458,-0.7097 -0.16149,-0.3016 -0.50876,-0.4559 -0.35642,-0.1583 -0.69756,-0.08 -0.38074,0.093 -0.56649,0.4377 z m 2.74164,1.2179 -3.29253,7.4116 1.81862,0.8079 3.29253,-7.4116 q 0.13498,-0.3777 -0.0458,-0.7097 -0.16149,-0.3015 -0.50876,-0.4558 -0.35642,-0.1583 -0.69756,-0.08 -0.38074,0.094 -0.56649,0.4377 z m 10.63932,-12.1626 q 0.31002,0.3639 0.12094,0.6464 -0.13346,0.1995 -0.54981,0.3902 -0.29418,0.116 -0.59393,0.2403 -1.67938,0.8375 -4.38566,2.0949 -3.77492,1.7576 -4.43277,2.0755 l 4.3135,2.8861 q 0.30183,0.2862 0.0571,0.6519 -0.19463,0.2909 -0.56337,0.2126 l -5.21111,-3.4867 q -0.1991,-0.3498 -0.0323,-0.5992 0.13346,-0.1994 0.56087,-0.3707 0.32749,-0.1298 0.66054,-0.2679 1.72937,-0.8763 4.35791,-2.0894 2.20108,-1.0059 4.39385,-2.0173 l -4.3135,-2.8862 q -0.29902,-0.3083 -0.0599,-0.6657 0.19463,-0.2909 0.58281,-0.2237 z m 9.52398,-9.3732 -7.06428,7.4131 q -0.35728,0.143 -0.60342,-0.092 -0.2389,-0.2276 -0.11327,-0.5914 l 3.1803,-3.3373 -3.6269,-3.4563 -3.1803,3.3373 q -0.35694,0.1572 -0.61032,-0.084 -0.28957,-0.2759 -0.0653,-0.6562 l 6.96769,-7.3117 q 0.3549,-0.242 0.65172,0.041 0.25337,0.2414 0.12051,0.5983 l -3.18721,3.3445 3.6269,3.4563 3.18721,-3.3446 q 0.36452,-0.1361 0.58894,0.078 0.22442,0.2139 0.12775,0.6052 z m 10.91175,-8.834 q 0.0715,0.096 0.034,0.3482 -0.0374,0.2518 -0.14186,0.3292 l -6.0494,4.4839 q -0.10444,0.077 -0.66539,0.2443 -0.48477,0.1353 -0.55083,0.1469 -0.32023,0.038 -0.64612,0.018 -0.53184,-0.029 -1.09054,-0.2621 -0.60453,-0.2614 -0.96682,-0.5655 -0.25482,-0.2094 -0.55852,-0.6192 -0.53592,-0.723 -0.68983,-1.8039 -0.0325,-0.2622 0.0723,-1.1116 0.0439,-0.3437 0.37322,-0.9239 0.33731,-0.5861 0.61046,-0.7886 l 6.01727,-4.4601 q 0.15264,-0.1131 0.39819,-0.034 0.20359,0.073 0.2691,0.1615 0.0595,0.08 0.0742,0.3184 0.0147,0.2381 -0.0898,0.3155 l -6.0494,4.4839 q -0.10444,0.077 -0.31445,0.4323 -0.1877,0.3009 -0.21624,0.3968 -0.47935,1.3013 0.34836,2.418 0.46447,0.6266 1.18895,0.8987 0.78638,0.2884 1.58598,0.01 0.15624,-0.041 0.38477,-0.1358 l 5.55131,-4.1147 -1.19095,-1.6068 -6.11367,4.5316 q -0.11247,0.083 -0.36786,-0.026 -0.19347,-0.093 -0.23516,-0.1493 -0.0536,-0.072 -0.0763,-0.3044 -0.0206,-0.2462 0.0838,-0.3236 l 6.53142,-4.8412 q 0.11248,-0.083 0.35623,-0.04 0.24584,0.029 0.32325,0.1338 z m 25.36536,-10.2753 q 0.0348,0.1149 -0.0851,0.3394 -0.11998,0.2245 -0.24438,0.2622 l -7.2056,2.1864 q -0.1244,0.038 -0.70877,0.01 -0.50202,-0.036 -0.56814,-0.047 -0.3144,-0.072 -0.6146,-0.2002 -0.49106,-0.2063 -0.93869,-0.6139 -0.48129,-0.4496 -0.72012,-0.8578 -0.16946,-0.283 -0.31755,-0.771 -0.26132,-0.8613 -0.0425,-1.9309 0.0576,-0.2578 0.44217,-1.0224 0.15707,-0.3089 0.6624,-0.7444 0.51489,-0.4384 0.84024,-0.5371 l 7.16732,-2.1748 q 0.18181,-0.055 0.38633,0.1022 0.16709,0.1374 0.19903,0.2427 0.029,0.096 -0.0373,0.3248 -0.0663,0.2291 -0.19073,0.2669 l -7.20559,2.1864 q -0.1244,0.038 -0.44157,0.3012 -0.27804,0.2202 -0.33717,0.3008 -0.88935,1.0641 -0.48576,2.3942 0.22648,0.7464 0.81712,1.2465 0.64343,0.5362 1.49113,0.5403 0.16096,0.014 0.40804,0 l 6.6123,-2.0064 -0.58071,-1.9138 -7.28215,2.2096 q -0.13397,0.041 -0.33762,-0.1484 -0.15086,-0.1528 -0.17119,-0.2197 -0.0261,-0.086 0.0306,-0.3124 0.0634,-0.2387 0.18782,-0.2764 l 7.77975,-2.3607 q 0.13396,-0.041 0.3489,0.082 0.22161,0.1104 0.25936,0.2348 z m 13.61803,-1.7853 q -0.0179,0.4254 -0.45463,0.4794 -0.45652,0.056 -0.56759,-0.3531 l -0.63662,-5.1508 q -1.19952,0.9745 -4.06524,3.1424 -0.0832,0.061 -0.81827,-0.2616 -1.33256,-0.591 -4.01875,-1.7805 l 0.63662,5.1508 q -0.0192,0.4155 -0.45586,0.4695 -0.34736,0.043 -0.52923,-0.2873 l -0.7691,-6.2226 q 0.0798,-0.3323 0.39743,-0.3716 0.22826,-0.028 0.49723,0.1098 0.92465,0.4702 2.40351,1.1036 2.23256,0.9432 2.45692,1.0465 1.40682,-1.0908 4.22047,-3.2724 0.0994,-0.093 0.27566,-0.2155 0.067,-0.028 0.13649,-0.037 0.17864,-0.022 0.34468,0.099 0.17473,0.1094 0.19313,0.2582 z m 13.92811,-3.9193 q -0.0372,0.9694 -0.72413,1.5066 0.61421,0.7507 0.57238,1.6097 -0.0292,0.5993 -0.38116,1.0427 -0.3739,0.4824 -1.03529,0.7005 -0.32546,0.1043 -0.44532,0.098 l -8.71967,-0.4246 q -0.10987,-0.01 -0.29089,-0.1944 -0.18102,-0.189 -0.1747,-0.3189 l 0.2928,-6.0129 q 0.008,-0.1698 0.21581,-0.3199 0.20755,-0.15 0.36736,-0.1423 l 8.57983,0.4178 q 0.3396,0.017 0.75839,0.2572 0.42878,0.2412 0.61395,0.5505 0.3969,0.6902 0.37064,1.2295 z m -1.82207,-1.0298 -8.1004,-0.3945 -0.0968,1.9877 8.10041,0.3944 q 0.40098,-0.01 0.6453,-0.2989 0.22288,-0.2595 0.24137,-0.6391 0.019,-0.3895 -0.17717,-0.6794 -0.22464,-0.3213 -0.61272,-0.3702 z m -0.14591,2.9964 -8.1004,-0.3944 -0.0968,1.9876 8.10041,0.3945 q 0.40098,-0.01 0.6453,-0.299 0.22288,-0.2595 0.24137,-0.639 0.019,-0.3895 -0.17717,-0.6794 -0.22464,-0.3213 -0.61272,-0.3703 z m 15.15953,5.6376 q -0.24237,0.3044 -0.5644,0.2323 -0.33178,-0.074 -0.41144,-0.4508 l 0.57249,-2.5567 -8.79228,-1.9687 -0.57249,2.5567 q -0.23261,0.3065 -0.55463,0.2344 -0.33179,-0.074 -0.41144,-0.4508 l 1.36348,-6.0892 q 0.22285,-0.3087 0.55463,-0.2344 0.4001,0.09 0.39615,0.5191 l -0.55719,2.4883 8.79227,1.9688 0.57249,-2.5567 q 0.24456,-0.3142 0.54707,-0.2464 0.3025,0.068 0.42877,0.4649 z"
       id="text1-4"
       transform="rotate(90,-149.95982,1088.6441)"
       aria-label="DL DIETMAR LOBNIG GMBH" />
    <path
       id="path10-18"
       style="fill:none;stroke-width:0.80851;stroke-linejoin:bevel"
       transform="rotate(71.200015)"
       d="m 1062.3184,492.64636 a 79.827339,79.827164 0 0 1 -79.82737,79.82717 79.827339,79.827164 0 0 1 -79.82734,-79.82717 79.827339,79.827164 0 0 1 79.82734,-79.82716 79.827339,79.827164 0 0 1 79.82737,79.82716 z" />
    <path
       id="path10-4-2"
       style="fill:none;stroke-width:0.87672;stroke-linejoin:bevel"
       transform="matrix(-0.64583011,0.76348115,0.76350898,0.64579721,0,0)"
       d="m 1014.4826,587.93597 a 86.569908,86.553764 0 0 1 -86.56988,86.55377 86.569908,86.553764 0 0 1 -86.56991,-86.55377 86.569908,86.553764 0 0 1 86.56991,-86.55376 86.569908,86.553764 0 0 1 86.56988,86.55376 z" />
    <path
       d="m -196.18122,1162.3741 -8.22743,-5.9099 q -0.0975,-0.07 -0.14677,-0.327 -0.0412,-0.2512 0.0347,-0.3568 l 3.51207,-4.8894 q 0.0992,-0.138 0.35496,-0.1513 0.25578,-0.013 0.38573,0.08 l 8.11373,5.8281 q 0.29673,0.324 0.0575,0.657 -0.20419,0.2843 -0.58409,0.1961 l -7.8051,-5.6065 -1.17263,1.6325 7.8051,5.6065 q 0.19321,0.348 0.0123,0.5998 -0.18085,0.2518 -0.58992,0.2042 l -7.8051,-5.6065 -1.17263,1.6325 7.8051,5.6065 q 0.19321,0.3481 0.0123,0.5999 -0.18085,0.2518 -0.58992,0.2042 z m 14.97126,0.9295 -7.86723,-3.943 q -0.40243,-0.067 -0.7201,0.098 -0.3132,0.1563 -0.46106,0.4513 -0.33605,0.6705 0.28504,1.239 l 6.61562,3.3157 q 0.66142,0.4881 0.81276,1.2351 0.14245,0.6978 -0.18464,1.3504 -0.31812,0.6347 -0.93107,0.9204 -0.68006,0.3079 -1.48929,0.07 l -7.90299,-3.9608 q -0.24121,-0.2999 -0.0889,-0.6039 0.14786,-0.295 0.53693,-0.2902 l 7.86723,3.943 q 0.81826,0.1528 1.1543,-0.5177 0.14786,-0.295 0.0856,-0.6394 -0.0578,-0.3534 -0.34376,-0.6309 l -6.61562,-3.3157 q -0.68377,-0.4881 -0.8396,-1.2261 -0.14695,-0.6665 0.18014,-1.3191 0.33604,-0.6705 0.98926,-0.9696 0.72032,-0.3213 1.52502,-0.03 l 7.77783,3.8981 q 0.33516,0.2687 0.15145,0.6352 -0.15682,0.3129 -0.53693,0.2902 z m 12.23631,3.9078 -4.41451,-1.396 -1.69759,5.368 q -0.25808,0.2854 -0.57272,0.1859 -0.32418,-0.1025 -0.3712,-0.4845 l 1.69457,-5.3584 -4.40498,-1.393 q -0.295,-0.2611 -0.19248,-0.5853 0.12061,-0.3814 0.56075,-0.3471 l 9.62993,3.0454 q 0.37633,0.2029 0.24969,0.6034 -0.10554,0.3337 -0.48146,0.3616 z m 7.83839,6.5842 q -0.0634,0.4253 -0.40142,0.658 -0.33801,0.2327 -0.73364,0.1737 -0.43519,-0.065 -0.66936,-0.393 -0.23565,-0.3183 -0.17372,-0.7337 0.0575,-0.3857 0.39994,-0.6481 0.35233,-0.2609 0.73806,-0.2034 0.41541,0.062 0.65358,0.4311 0.23964,0.3593 0.18656,0.7154 z m 30.39494,-0.7367 -8.12324,1.3822 q -0.37356,-0.1089 -0.42892,-0.4342 -0.0553,-0.3253 0.26117,-0.5516 l 3.53913,-0.6022 -0.55356,-3.2533 q -0.25025,0.3774 -0.70773,0.7291 -0.45748,0.3517 -0.85979,0.4912 -0.0476,0.018 -0.21668,0.098 -0.11326,0.05 -0.2217,0.068 -0.17745,0.03 -0.45537,0.01 -0.0625,-0.01 -0.19443,-0.1292 -0.12375,-0.1311 -0.14052,-0.2297 -0.0587,-0.345 0.1823,-0.5382 0.0705,-0.063 0.26597,-0.1061 0.29575,-0.05 0.31546,-0.054 0.25129,-0.073 0.47929,-0.2235 0.19193,-0.124 0.38218,-0.2578 0.0722,-0.053 0.40066,-0.6261 0.35619,-0.6489 0.42081,-0.9845 -0.0189,-0.2301 0.0109,-0.6511 0.0862,-0.2682 0.37211,-0.3169 0.43377,-0.074 0.60448,0.3333 l 0.93099,5.4714 3.5687,-0.6072 q 0.38342,0.1072 0.4371,0.4226 0.0503,0.2958 -0.26935,0.5632 z m 9.83199,-3.6397 q -0.13805,0.2157 -0.26664,0.4282 -0.18203,0.2729 -0.32394,0.3527 -0.1671,0.099 -0.38909,-0.026 -0.20932,-0.1191 -0.27673,-0.318 -0.0193,-0.057 -0.0226,-0.098 -0.0133,-0.1328 0.35381,-0.7007 l 1.569,-2.4113 -5.66994,1.9007 q -0.47643,0.2143 -1.22749,-0.1013 -0.78589,-0.3249 -1.00691,-0.8835 -0.0128,-0.038 -0.0767,-0.1641 -0.0671,-0.1356 -0.0896,-0.2019 -0.0546,-0.161 -0.0765,-0.7554 -0.0183,-0.4901 0.3901,-1.0298 0.37692,-0.5078 0.8031,-0.6523 l 6.91366,-2.3433 q 0.2212,-0.033 0.65428,-0.063 0.59152,0.032 1.08092,0.51 0.42906,0.4247 0.63129,1.0214 0.15409,0.4546 0.0894,0.7933 -0.41385,0.7104 -0.67759,1.0849 -1.03862,1.6085 -2.38176,3.6582 z m 2.0903,-5.0165 q 0.0404,-0.1299 -0.0173,-0.3004 -0.11556,-0.3409 -0.48362,-0.5857 -0.37128,-0.2543 -0.73117,-0.1323 l -6.81895,2.3113 q -0.35957,0.1852 -0.4843,0.5337 -0.12474,0.3485 -0.006,0.6989 0.10914,0.322 0.38844,0.523 0.28877,0.1977 0.68702,0.1578 l 6.91366,-2.3434 q 0.25123,-0.3491 0.55222,-0.8629 z m 10.35363,-0.6466 q -0.10234,0.2348 -0.19583,0.465 -0.13676,0.2981 -0.26432,0.3993 -0.14943,0.1239 -0.38841,0.035 -0.22547,-0.085 -0.32338,-0.2704 -0.028,-0.053 -0.0378,-0.093 -0.0341,-0.129 0.23898,-0.7477 l 1.16943,-2.6284 -5.29959,2.7704 q -0.43671,0.2867 -1.22812,0.093 -0.82728,-0.197 -1.13356,-0.7138 -0.0186,-0.035 -0.10161,-0.15 -0.0876,-0.1233 -0.12027,-0.1853 -0.0793,-0.1504 -0.19462,-0.7339 -0.0953,-0.481 0.22296,-1.0783 0.29217,-0.5609 0.69027,-0.7707 l 6.45802,-3.4036 q 0.21327,-0.067 0.63611,-0.1657 0.58914,-0.062 1.14779,0.3334 0.49063,0.3518 0.78435,0.9091 0.2238,0.4247 0.21328,0.7693 -0.29672,0.7668 -0.49816,1.1782 -0.77217,1.7521 -1.77554,3.9877 z m 1.27367,-5.2832 q 0.0195,-0.1346 -0.0644,-0.2938 -0.16785,-0.3185 -0.56989,-0.5022 -0.4067,-0.1926 -0.74287,-0.015 l -6.36955,3.3569 q -0.32589,0.2396 -0.39415,0.6034 -0.0683,0.3638 0.10424,0.6911 0.15852,0.3008 0.466,0.4553 0.31632,0.1498 0.7033,0.047 l 6.45802,-3.4035 q 0.19307,-0.3843 0.40933,-0.9392 z m 5.59952,-6.9029 q 0.12204,-0.154 0.36402,-0.098 0.24999,0.05 0.37595,0.2181 0.03,0.04 0.052,0.086 0.05,0.15 -0.11818,0.776 -0.24622,0.9219 -0.74665,2.7718 l 4.796838,-3.5709 q 0.616109,-0.4619 1.474063,-0.2676 0.787957,0.1841 1.16783,0.7242 0.413858,0.6021 0.433691,1.3121 0.02184,0.696 -0.620328,1.3899 l -5.953054,4.4626 q -0.13801,0.066 -0.44804,0.1859 -0.64805,0.1858 -1.26999,-0.06 -0.54594,-0.2282 -0.89983,-0.7002 -0.25192,-0.3361 -0.30384,-0.6721 -0.01,-0.03 0.0881,-0.616 0.10614,-0.592 0.16419,-0.7979 0.49243,-1.8439 1.07495,-4.0178 0.0721,-0.304 0.14414,-0.608 0.0961,-0.3719 0.22412,-0.5179 z m 6.555398,2.5595 q 0.490161,-0.6798 0.0343,-1.288 -0.209934,-0.28 -0.561914,-0.3661 -0.35198,-0.086 -0.728022,0.096 l -5.761012,4.3187 q -0.048,0.036 -0.16611,0.4619 -0.13211,0.474 -0.0882,0.666 0.024,0.082 0.09,0.17 0.20994,0.2801 0.6339,0.4122 0.41798,0.1241 0.65002,-0.05 z"
       id="text11-1"
       style="font-size:10px;line-height:0px;font-family:'7 days';-inkscape-font-specification:'7 days';stroke:#000000;stroke-width:0.1;stroke-linejoin:bevel"
       aria-label="EST. 1996" />
    <path
       d="m -147.2788,1038.8181 c 3.63419,2.6969 5.65207,5.7562 6.58051,10.1582 1.10612,8.3985 -0.87108,16.405 -3.74387,24.2361 0.117,0.117 0.23403,0.234 0.35458,0.3546 0.0397,-0.3565 0.0397,-0.3565 0.0802,-0.7202 0.3673,-1.4099 1.04847,-2.4893 1.82553,-3.7121 0.23696,-0.3745 0.23696,-0.3745 0.47873,-0.7566 1.60275,-2.4765 3.4158,-4.7035 5.41619,-6.8668 0.17289,-0.1885 0.34578,-0.3769 0.5239,-0.571 2.31142,-2.4921 4.63304,-4.5091 7.63146,-6.1661 0.25137,-0.1449 0.50278,-0.2898 0.76179,-0.4391 3.08412,-1.6761 6.44671,-2.1779 9.85347,-1.2895 3.25897,1.0713 5.8454,3.0736 7.55839,6.0459 1.29724,2.7618 1.49128,5.8374 0.68975,8.7814 -0.58293,1.5103 -1.29869,2.9266 -2.19812,4.2758 0.33459,0.046 0.33459,0.046 0.67592,0.093 3.85773,0.6333 6.23944,2.4327 8.54319,5.5805 1.55211,2.7028 1.68156,5.9477 1.01943,8.931 -1.0463,3.6199 -3.14241,6.3146 -6.44894,8.2025 -8.05583,3.5774 -17.55742,1.1987 -25.63622,-0.9531 -0.75346,-0.1996 -1.5082,-0.3919 -2.26486,-0.5788 0.45113,0.2776 0.45113,0.2776 0.91138,0.5609 7.63696,4.7641 15.33432,10.6586 18.08501,19.6031 0.65261,3.269 0.36009,6.6992 -1.26735,9.6207 -2.03664,2.8953 -4.62158,4.9881 -8.15535,5.6734 -3.44784,0.3125 -6.71948,-0.1383 -9.46291,-2.3935 -0.40586,-0.3949 -0.40586,-0.3949 -0.81994,-0.7978 -0.0654,0.2148 -0.13068,0.4297 -0.19807,0.651 -1.05095,3.0361 -2.92341,5.6497 -5.71902,7.3271 -3.25905,1.4758 -6.73402,1.927 -10.17203,0.687 -3.36879,-1.5766 -5.57238,-4.214 -6.84784,-7.6678 -1.92837,-6.3877 -1.04518,-12.6173 -0.1108,-19.0809 -5.095,10.5548 -9.34413,21.6848 -6.82292,33.5439 0.0859,0.8504 0.0859,0.8504 -0.62328,1.9142 -1.25621,0.4187 -2.22805,0.4504 -3.54581,0.3546 -2.10347,-3.1552 -0.94948,-9.8358 -0.32697,-13.4662 0.29059,-1.4374 0.6413,-2.8507 1.03613,-4.2629 0.0818,-0.2929 0.16363,-0.5857 0.24793,-0.8875 1.73438,-5.9946 4.37917,-11.6425 7.19827,-17.1961 -0.49545,0.5462 -0.99026,1.093 -1.48481,1.6399 -0.44153,0.4882 -0.44153,0.4882 -0.89199,0.9862 -0.58175,0.657 -1.13903,1.3359 -1.67872,2.0278 -3.37613,3.7878 -8.25525,7.0063 -13.37573,7.5126 -3.90607,0.1462 -6.999,-0.9957 -9.87148,-3.6565 -2.02886,-2.1505 -2.86412,-4.8792 -2.96961,-7.8008 0.0969,-2.8016 0.9195,-5.2245 2.61503,-7.4462 -0.40519,-0.1166 -0.40519,-0.1166 -0.81858,-0.2355 -4.00619,-1.2304 -6.74806,-2.7178 -8.7551,-6.5016 -1.4889,-3.3028 -1.22262,-6.5784 0,-9.9283 1.4828,-3.3161 3.74019,-5.421 7.06946,-6.8478 0.59434,-0.2111 1.19278,-0.4111 1.79506,-0.5984 0.38394,-0.1199 0.38394,-0.1199 0.77565,-0.2423 7.89922,-1.9886 16.49202,0.5123 24.04501,2.7244 -0.51421,-0.3346 -0.51421,-0.3346 -1.03881,-0.6759 -2.71753,-1.781 -5.34896,-3.5961 -7.82571,-5.7066 -0.2902,-0.2427 -0.58044,-0.4854 -0.87948,-0.7354 -4.41835,-3.8156 -8.90334,-8.9687 -9.48781,-15.0337 -0.10034,-3.5017 0.66418,-6.4524 2.92114,-9.1845 2.47332,-2.5179 5.43482,-4.029 8.98641,-4.1566 2.83406,0.1042 4.75138,0.7253 7.03621,2.4308 0.61032,0.5073 0.61032,0.5073 1.35184,0.4405 0.0653,-0.2149 0.13072,-0.4297 0.19806,-0.651 1.07424,-3.1034 2.96567,-5.809 5.94062,-7.3493 3.33999,-1.302 8.02674,-1.668 11.2358,0.1995 z"
       fill="#c3c3c3"
       id="path2-9"
       style="fill:#000003;fill-opacity:1;stroke:none;stroke-width:0.354581;stroke-opacity:1" />
  </g>
</svg>
